<svg xmlns="http://www.w3.org/2000/svg"
  xmlns:xlink="http://www.w3.org/1999/xlink" id="Layer_1" x="0px" y="0px" viewBox="0 0 175 80" style="enable-background:new 0 0 175 80;" xml:space="preserve">
  <style type="text/css">.st0{clip-path:url(#SVGID_3_)}.st1{clip-path:url(#SVGID_4_)}.st2{fill:#313D47}.st3{clip-path:url(#SVGID_7_)}.st4{clip-path:url(#SVGID_8_)}</style>
  <title>Sinch Logo footer RGB</title>
  <g>
    <defs>
      <rect id="SVGID_1_" x="5" y="5" width="165" height="70"></rect>
    </defs>
    <defs>
      <path id="SVGID_2_" d="M41.3,74h9.1V37.2l-9.1,5.3V74L41.3,74z M165,42.3c-3.2-3.3-7.6-5.2-12.2-5.1c-3,0-6.4,1.1-8.1,2.8V22 l-9.1,5.3V74h9.2V55.3c-0.1-2.4,0.7-4.7,2.3-6.6c3.2-3.1,8.3-3.1,11.5,0c1.6,1.8,2.4,4.2,2.3,6.6V74h9.1V54.6 C170.1,50,168.3,45.6,165,42.3z M73.9,37.2c-4.6-0.1-9,1.8-12.2,5.1c-3.3,3.3-5.1,7.7-5,12.3V74h9.2V55.3 c-0.1-2.4,0.7-4.7,2.3-6.6c3.2-3.1,8.3-3.1,11.5,0c1.6,1.8,2.4,4.2,2.3,6.6V74h9.2V54.6c0.1-4.6-1.7-9.1-5-12.3 C82.9,39,78.5,37.2,73.9,37.2L73.9,37.2z M114.7,65.8c-2.5,0.1-5-0.9-6.8-2.7c-1.8-1.9-2.7-4.4-2.7-7c0-5.7,4-9.8,9.5-9.8 c3.4-0.1,6.5,1.8,8,4.8l7.8-4.6c-3.1-5.8-9.2-9.4-15.8-9.2c-5-0.1-9.8,1.8-13.3,5.4c-7.1,7.6-7.1,19.3,0,26.9 c7.3,7.3,19.1,7.2,26.4,0c1.1-1.1,2.1-2.4,2.9-3.8l-7.9-4.6C121.2,64.2,118,66,114.7,65.8L114.7,65.8z M32.1,55.1 c-1.3-0.8-2.7-1.5-4.2-1.9c-1.5-0.5-3-0.8-4.5-1.1c-1.9-0.4-3.8-0.9-5.7-1.6c-1.4-0.5-2.1-1.3-2.1-2.5c0-1,0.5-1.9,1.3-2.5 c1.1-0.7,2.4-1.1,3.7-1c1.5-0.1,2.9,0.3,4.2,1c1.2,0.7,2.1,1.7,2.8,2.8l7.6-4.4c-1.5-1.9-3.3-3.5-5.3-4.6c-2.9-1.5-6-2.2-9.3-2 c-1.9,0-3.8,0.3-5.7,0.9c-1.6,0.5-3.1,1.4-4.4,2.4c-1.3,1-2.3,2.2-3,3.6c-0.7,1.3-1.1,2.8-1.1,4.4c-0.1,1.6,0.3,3.3,1.1,4.7 c0.7,1.2,1.8,2.2,2.9,3c1.2,0.8,2.5,1.5,3.9,1.9c1.5,0.5,2.7,0.8,4.2,1.1c1.1,0.2,2.2,0.5,3.2,0.7c0.9,0.2,1.8,0.4,2.7,0.8 c0.7,0.2,1.3,0.6,1.8,1.1c0.4,0.4,0.7,1,0.7,1.6c0,1.1-0.6,2.1-1.4,2.8c-1.2,0.9-2.7,1.3-4.2,1.2c-3.9,0-6.6-1.6-8.2-4.9L5,67.3 c1.3,2.3,3.2,4.1,5.5,5.4c3.2,1.7,6.9,2.5,10.5,2.3c2.3,0,4.6-0.3,6.8-1.1c1.8-0.6,3.4-1.6,4.8-2.8c1.2-1,2.2-2.4,2.8-3.8 c0.6-1.3,0.9-2.8,0.9-4.2c0.1-1.7-0.4-3.4-1.2-4.8C34.4,57,33.3,55.9,32.1,55.1L32.1,55.1z"></path>
    </defs>
    <clipPath id="SVGID_3_">
      <use xlink:href="#SVGID_1_" style="overflow:visible;"></use>
    </clipPath>
    <clipPath id="SVGID_4_" class="st0">
      <use xlink:href="#SVGID_2_" style="overflow:visible;"></use>
    </clipPath>
    <g class="st1">
      <rect y="17" class="st2" width="175" height="63"></rect>
    </g>
  </g>
  <g>
    <defs>
      <rect id="SVGID_5_" x="5" y="5" width="165" height="70"></rect>
    </defs>
    <defs>
      <path id="SVGID_6_" d="M81,19.7c0,4.1-2.4,7.8-6.2,9.2c-3.2,1.3-7,0.8-10.7-1.3l-2.7-1.6c-0.6,0.7-1.3,1.3-2,1.8L50.9,33l0,0v-4.4 l0,0L63.7,21c-0.1,0.6-0.2,1.3-0.4,1.9l2.7,1.5c3.4,2,6,1.7,7.5,1.1c1.7-0.7,3-2,3.6-3.8c0.2-0.6,0.3-1.3,0.3-1.9 c0-0.7-0.1-1.3-0.3-1.9c-0.6-1.7-1.9-3.1-3.6-3.7c-1.5-0.6-4.1-0.9-7.5,1.1L45.1,27.6l0,0c-2.1,1.3-4.5,2-6.9,2.1 c-1.3,0-2.6-0.2-3.8-0.7c-2.8-1.1-4.9-3.3-5.9-6.1c-0.3-1-0.5-2-0.5-3.1c0-4.1,2.4-7.8,6.2-9.3c3.2-1.3,7-0.8,10.7,1.3l2.7,1.6 c0.6-0.7,1.3-1.3,2-1.8l0.2-0.1l1-0.6l-4.2-2.5c-0.9-0.5-1.2-1.7-0.7-2.6c0.5-0.9,1.6-1.2,2.5-0.7c0,0,0,0,0,0l6.1,3.5l6-3.5 c0.9-0.5,2-0.2,2.5,0.6c0,0,0,0,0,0c0.5,0.9,0.2,2-0.7,2.6l0,0l-16.9,10c0.1-0.6,0.2-1.2,0.4-1.8l-2.7-1.5c-3.4-2-6-1.7-7.5-1.1 c-1.7,0.7-3.1,2.1-3.7,3.8c-0.2,0.6-0.3,1.3-0.3,1.9c0,0.7,0.1,1.3,0.3,1.9c0.6,1.7,1.9,3.1,3.6,3.7c1.6,0.6,4.1,0.9,7.5-1.1 L64,12c2.1-1.3,4.5-2,6.9-2.1c1.3,0,2.6,0.2,3.8,0.7c2.8,1.1,4.9,3.3,5.9,6.1C80.9,17.6,81,18.7,81,19.7"></path>
    </defs>
    <clipPath id="SVGID_7_">
      <use xlink:href="#SVGID_5_" style="overflow:visible;"></use>
    </clipPath>
    <clipPath id="SVGID_8_" class="st3">
      <use xlink:href="#SVGID_6_" style="overflow:visible;"></use>
    </clipPath>
    <g class="st4">
      <rect x="23" y="0" class="st2" width="63" height="38"></rect>
    </g>
  </g>
</svg>
